<svg xmlns="http://www.w3.org/2000/svg" width="18" height="18" viewBox="0 0 18 18">
  <path id="Path_410831" data-name="Path 410831" d="M844.627,385.242a3.213,3.213,0,0,0-3.027,2.143h-5.865a1.821,1.821,0,0,1,0-3.643h6.214a3.964,3.964,0,1,0,0-7.929h-5.865a3.214,3.214,0,1,0,0,2.143h5.865a1.821,1.821,0,0,1,0,3.643h-6.214a3.964,3.964,0,1,0,0,7.929H841.6a3.213,3.213,0,1,0,3.027-4.286Zm-11.571-7.286a1.071,1.071,0,1,1,1.071-1.071A1.072,1.072,0,0,1,833.055,377.957Z" transform="translate(-829.841 -373.671)" fill="#fff"/>
</svg>
