<svg xmlns="http://www.w3.org/2000/svg" width="15" height="15" viewBox="0 0 15 15">
  <path id="Path_410831" data-name="Path 410831" d="M842.162,383.314a2.677,2.677,0,0,0-2.523,1.786h-4.888a1.518,1.518,0,0,1,0-3.036h5.179a3.3,3.3,0,0,0,0-6.607h-4.888a2.679,2.679,0,1,0,0,1.786h4.888a1.518,1.518,0,1,1,0,3.036h-5.179a3.3,3.3,0,0,0,0,6.607h4.888a2.678,2.678,0,1,0,2.523-3.571Zm-9.643-6.071a.893.893,0,1,1,.893-.893A.894.894,0,0,1,832.52,377.242Z" transform="translate(-829.841 -373.671)" fill="#fff"/>
</svg>
