<svg xmlns="http://www.w3.org/2000/svg" width="18" height="13" viewBox="0 0 18 13">
  <g id="_13_Book" data-name="13 Book" transform="translate(-1402.841 -952.728)">
    <path id="Path_410772" data-name="Path 410772" d="M1410.03,965.659a14.762,14.762,0,0,0-6.08-1.279,1.108,1.108,0,0,1-1.11-1.084v-9.483a1.1,1.1,0,0,1,1.159-1.085,15.726,15.726,0,0,1,6.684,1.584.718.718,0,0,1,.407.644V965A.746.746,0,0,1,1410.03,965.659Z" transform="translate(0 0)" fill="#fff"/>
    <path id="Path_410773" data-name="Path 410773" d="M1429.9,965.659a14.76,14.76,0,0,1,6.079-1.279,1.108,1.108,0,0,0,1.11-1.084v-9.483a1.1,1.1,0,0,0-1.159-1.085,15.726,15.726,0,0,0-6.684,1.584.718.718,0,0,0-.407.644V965A.747.747,0,0,0,1429.9,965.659Z" transform="translate(-16.25 0)" fill="#fff"/>
  </g>
</svg>
