<svg xmlns="http://www.w3.org/2000/svg" width="17" height="13" viewBox="0 0 17 13">
  <g id="_10_Crown" data-name="10 Crown" transform="translate(-1114.84 -280.671)">
    <path id="Path_410845" data-name="Path 410845" d="M1128.889,293.671h-11.1a1.786,1.786,0,0,1-1.761-1.568l-1.181-9.039a1.066,1.066,0,0,1,1.781-.936l1.984,1.872a1.054,1.054,0,0,0,1.538-.094l2.373-2.851a1.055,1.055,0,0,1,1.627,0l2.373,2.851a1.054,1.054,0,0,0,1.538.094l1.983-1.872a1.066,1.066,0,0,1,1.781.936l-1.181,9.039A1.786,1.786,0,0,1,1128.889,293.671Z" transform="translate(0)" fill="#fff"/>
  </g>
</svg>
