<svg xmlns="http://www.w3.org/2000/svg" width="25" height="24" viewBox="0 0 25 24">
  <g id="Heart_Line" data-name="Heart Line" transform="translate(1)">
    <rect id="Rectangle_192" data-name="Rectangle 192" width="24" height="24" fill="none"/>
    <g id="_7_The_envelope" data-name="7 The envelope" transform="translate(-827.841 -1523.671)">
      <path id="Path_410746" data-name="Path 410746" d="M848.341,1528.671h-19a2.5,2.5,0,0,0-2.5,2.5v13a2.5,2.5,0,0,0,2.5,2.5h19a2.5,2.5,0,0,0,2.5-2.5v-13A2.5,2.5,0,0,0,848.341,1528.671Zm-.935,4.825-6.58,4.525a3.535,3.535,0,0,1-3.97,0l-6.58-4.525a1,1,0,0,1,1.13-1.65l6.585,4.525a1.507,1.507,0,0,0,1.7,0l6.585-4.525a1,1,0,1,1,1.13,1.65Z" transform="translate(0)" fill="#fff"/>
    </g>
  </g>
</svg>
