<svg xmlns="http://www.w3.org/2000/svg" width="100.587" height="31.019" viewBox="0 0 100.587 31.019">
  <g id="Logo" transform="translate(-202.827 -762.88)">
    <path id="Path_411056" data-name="Path 411056" d="M215.137,764.725v13.469c0,2.9-1.505,4.667-4.15,4.667s-4.393-1.62-4.393-4.667v-8.512l-3.179,1.845v6.667c0,5.1,3.47,7.568,7.548,7.568,4.271,0,7.353-2.563,7.353-7.568V762.88Z" fill="#fff"/>
    <g id="Group_7966" data-name="Group 7966" transform="translate(224.109 768.45)">
      <path id="Path_411057" data-name="Path 411057" d="M541.13,863.929h-4.8v4.979H533.12V861h8.01a3,3,0,1,0,0-6h-8.01v-3.021c2.67,0,5.34-.025,8.01-.025C549.43,851.961,549.455,863.929,541.13,863.929Z" transform="translate(-533.12 -851.961)" fill="#fff"/>
    </g>
    <g id="Group_7967" data-name="Group 7967" transform="translate(240.924 768.69)">
      <path id="Path_411058" data-name="Path 411058" d="M812.577,866.2A4.883,4.883,0,0,0,815,864.232a5.477,5.477,0,0,0,.8-2.923q0-.026,0-.052h0a5.541,5.541,0,0,0-1.47-3.751,5.216,5.216,0,0,0-1.808-1.241,6.453,6.453,0,0,0-2.49-.467h-9.025l1.58,1.807h7.445a4.229,4.229,0,0,1,1.661.313,3.292,3.292,0,0,1,1.56,1.351,3.733,3.733,0,0,1,.519,1.915c0,.016,0,.032,0,.048v0a4.633,4.633,0,0,1-.241,1.492,3.128,3.128,0,0,1-.475.885,2.953,2.953,0,0,1-1.221.916,5.022,5.022,0,0,1-1.944.341h-3.233l1.715,1.831h.027l1.374,1.5.046.05,4.317,4.71h2.54l-5.881-6.357A6.452,6.452,0,0,0,812.577,866.2Z" transform="translate(-801.005 -855.797)" fill="#fff"/>
      <path id="Path_411059" data-name="Path 411059" d="M1126.441,872.95h1.886V855.791h-1.886Z" transform="translate(-1106.014 -855.791)" fill="#fff"/>
      <path id="Path_411060" data-name="Path 411060" d="M1601.477,985.467v-5.891h9.72v-1.783h-11.607v9.53h12.365v-1.855Z" transform="translate(-1549.465 -970.164)" fill="#fff"/>
      <path id="Path_411061" data-name="Path 411061" d="M1611.672,855.8h-12.081v1.831h12.081Z" transform="translate(-1549.465 -855.797)" fill="#fff"/>
      <path id="Path_411062" data-name="Path 411062" d="M1270.807,855.791l-.082.189-6.275,14.427-5.938-14.617h-2.057L1263.541,873h1.781l.142-.3,7.382-16.907Z" transform="translate(-1227.868 -855.791)" fill="#fff"/>
    </g>
    <text id="The_power_of_reusable_marketing" data-name="The power of reusable marketing" fill="#fff" stroke="rgba(0,0,0,0)" transform="translate(203.827 791.899)" stroke-width="1" font-size="4.7" font-family="IBMPlexSans-Light, IBM Plex Sans" font-weight="300" letter-spacing="0.1em"><tspan x="0" y="0">THE POWER OF REUSABLE MARKETING</tspan></text>
    <rect id="Rectangle_3309" data-name="Rectangle 3309" width="1.444" height="15.195" transform="translate(291.075 769.078)" fill="#fff"/>
    <rect id="Rectangle_3308" data-name="Rectangle 3308" width="3.201" height="15.195" transform="translate(224.101 768.515)" fill="#fff"/>
  </g>
</svg>
