<svg xmlns="http://www.w3.org/2000/svg" width="15" height="20" viewBox="0 0 15 20">
  <g id="_6_Paper_3" data-name="6 Paper_3" transform="translate(-736.841 -946.671)">
    <path id="Path_410781" data-name="Path 410781" d="M751.233,951.9l-4.617-4.617a2.081,2.081,0,0,0-1.471-.608h-6.221a2.084,2.084,0,0,0-2.083,2.083v15.833a2.084,2.084,0,0,0,2.083,2.083h10.833a2.084,2.084,0,0,0,2.083-2.083V953.367A2.081,2.081,0,0,0,751.233,951.9Zm-9.392,5.192h2.917a.833.833,0,1,1,0,1.667h-2.917a.833.833,0,1,1,0-1.667Zm5,5.417h-5a.833.833,0,1,1,0-1.667h5a.833.833,0,1,1,0,1.667Zm2.746-8.75h-2.746a2.084,2.084,0,0,1-2.083-2.083v-2.746a.417.417,0,0,1,.713-.292l4.408,4.408A.417.417,0,0,1,749.587,953.754Z" transform="translate(0)" fill="#fff"/>
  </g>
</svg>
