<svg xmlns="http://www.w3.org/2000/svg" width="14" height="15" viewBox="0 0 14 15">
  <g id="_34_Update_reset_4" data-name="34 Update, reset_4" transform="translate(-541.669 -3444.495)">
    <path id="Path_410592" data-name="Path 410592" d="M554.951,3468.671h-1.323a.661.661,0,0,0-.661.661v1.323a.332.332,0,0,1-.331.331h-6.943v-1.38a.661.661,0,0,0-1.129-.468l-2.7,2.7a.661.661,0,0,0,0,.935l2.7,2.7a.661.661,0,0,0,1.129-.468v-1.38h6.943a2.976,2.976,0,0,0,2.976-2.977v-1.323A.661.661,0,0,0,554.951,3468.671Z" transform="translate(0 -16.179)" fill="#000a19"/>
    <path id="Path_410593" data-name="Path 410593" d="M555.591,3447.393l-2.7-2.7a.661.661,0,0,0-1.129.468v1.38h-6.943a2.976,2.976,0,0,0-2.976,2.977v1.323a.661.661,0,0,0,.661.661h1.323a.661.661,0,0,0,.661-.661v-1.323a.331.331,0,0,1,.331-.331h6.943v1.38a.661.661,0,0,0,1.129.468l2.7-2.7A.661.661,0,0,0,555.591,3447.393Z" transform="translate(-0.115)" fill="#000a19"/>
  </g>
</svg>
