<svg xmlns="http://www.w3.org/2000/svg" width="14" height="15" viewBox="0 0 14 15">
  <g id="_2_Schedule" data-name="2 Schedule" transform="translate(-350.841 -948.671)">
    <path id="Path_410785" data-name="Path 410785" d="M363.091,949.694h-4.375v-.17a.875.875,0,0,0-1.75,0v.17h-4.375a1.728,1.728,0,0,0-1.75,1.7v6.818a1.728,1.728,0,0,0,1.75,1.7h4.375v1.006l-2.317,1.128a.848.848,0,0,0-.392,1.145.895.895,0,0,0,1.176.382l2.408-1.176,2.408,1.176a.895.895,0,0,0,1.176-.382.848.848,0,0,0-.392-1.145l-2.317-1.128v-1.006h4.375a1.728,1.728,0,0,0,1.75-1.7V951.4A1.728,1.728,0,0,0,363.091,949.694Zm-7.35,6.818a.7.7,0,0,1-1.4,0v-.682a.7.7,0,0,1,1.4,0Zm2.8,0a.7.7,0,0,1-1.4,0V953.1a.7.7,0,0,1,1.4,0Zm2.8,0a.7.7,0,0,1-1.4,0v-1.7a.7.7,0,0,1,1.4,0Z" fill="#fff"/>
  </g>
</svg>
