<svg xmlns="http://www.w3.org/2000/svg" width="15" height="15" viewBox="0 0 15 15">
  <g id="_19_Settings_2" data-name="19 Settings_2" transform="translate(-541.841 -373.713)">
    <path id="Path_410834" data-name="Path 410834" d="M546.127,384.055a2.141,2.141,0,0,0-1.25-1.946v-7.5a.893.893,0,1,0-1.786,0v7.5a2.14,2.14,0,0,0,0,3.892v1.819a.893.893,0,1,0,1.786,0V386A2.141,2.141,0,0,0,546.127,384.055Z" fill="#fff"/>
    <path id="Path_410835" data-name="Path 410835" d="M576.127,382.627a2.142,2.142,0,0,0-1.25-1.946v-6.075a.893.893,0,1,0-1.786,0v6.075a2.14,2.14,0,0,0,0,3.892v3.247a.893.893,0,0,0,1.786,0v-3.247A2.141,2.141,0,0,0,576.127,382.627Z" transform="translate(-19.286 0)" fill="#fff"/>
    <path id="Path_410836" data-name="Path 410836" d="M561.127,378.341a2.142,2.142,0,0,0-1.25-1.946v-1.789a.893.893,0,1,0-1.786,0v1.789a2.14,2.14,0,0,0,0,3.892v7.533a.893.893,0,1,0,1.786,0v-7.533A2.141,2.141,0,0,0,561.127,378.341Z" transform="translate(-9.643 0)" fill="#fff"/>
  </g>
</svg>
