<svg xmlns="http://www.w3.org/2000/svg" width="42" height="42" viewBox="0 0 42 42">
  <g id="_11_Stretch" data-name="11 Stretch" transform="translate(-1213.841 -3253.671)">
    <path id="Path_410617" data-name="Path 410617" d="M1231.108,3267.4l-7.5-7.5,2.819-2.819a2,2,0,0,0-1.415-3.414h-9.171a2,2,0,0,0-2,2v9.172a2,2,0,0,0,3.414,1.414l2.818-2.818,7.5,7.5a2.5,2.5,0,1,0,3.535-3.535Z" fill="#2e3440"/>
    <path id="Path_410618" data-name="Path 410618" d="M1253.841,3253.671h-9.172a2,2,0,0,0-1.414,3.414l2.818,2.819-7.5,7.5a2.5,2.5,0,0,0,3.535,3.535l7.5-7.5,2.819,2.818a2,2,0,0,0,3.414-1.414v-9.172A2,2,0,0,0,1253.841,3253.671Z" fill="#2e3440"/>
    <path id="Path_410619" data-name="Path 410619" d="M1252.427,3283.085l-2.819,2.819-7.5-7.5a2.5,2.5,0,0,0-3.535,3.535l7.5,7.5-2.818,2.818a2,2,0,0,0,1.414,3.414h9.172a2,2,0,0,0,2-2V3284.5A2,2,0,0,0,1252.427,3283.085Z" fill="#2e3440"/>
    <path id="Path_410620" data-name="Path 410620" d="M1231.841,3280.171a2.5,2.5,0,0,0-4.268-1.767l-7.5,7.5-2.818-2.819a2,2,0,0,0-3.414,1.414v9.172a2,2,0,0,0,2,2h9.171a2,2,0,0,0,1.415-3.414l-2.819-2.818,7.5-7.5A2.489,2.489,0,0,0,1231.841,3280.171Z" fill="#2e3440"/>
  </g>
</svg>
